<svg viewBox="0 0 133.54 133.54" xmlns="http://www.w3.org/2000/svg"><g fill="#0f1623"><path d="m68.54 9.72 4.95 8.58a6.85 6.85 0 0 1 0 6.84l-24.41 42.17a15 15 0 0 0 13 22.57l1-.07a15.78 15.78 0 0 0 2.05-.28 1.64 1.64 0 0 1 1.74.74 8.08 8.08 0 0 1 1.13 2.78c1 5.31-3 9.73-8.41 9.73h-44.59a2.28 2.28 0 0 1 -2-3.42l51.59-89.63a2.28 2.28 0 0 1 3.95-.01z"/><path d="m.31 121.54 5-8.57a6.83 6.83 0 0 1 5.92-3.42h48.73a15 15 0 0 0 13.04-22.55l-.58-.86a15.18 15.18 0 0 0 -1.27-1.63 1.67 1.67 0 0 1 -.23-1.88 8.11 8.11 0 0 1 1.87-2.33c4.1-3.53 9.93-2.26 12.63 2.42l22.3 38.63a2.28 2.28 0 0 1 -2 3.42l-103.44.23a2.28 2.28 0 0 1 -1.97-3.46z"/><path d="m131.26 124.72h-9.9a6.83 6.83 0 0 1 -5.92-3.42l-24.33-42.22a15 15 0 0 0 -26 0l-.45.93a13.19 13.19 0 0 0 -.78 1.91 1.65 1.65 0 0 1 -1.52 1.14 8.25 8.25 0 0 1 -3-.45c-5.1-1.79-6.92-7.47-4.22-12.15l22.31-38.64a2.27 2.27 0 0 1 3.94 0l51.84 89.48a2.28 2.28 0 0 1 -1.97 3.42z"/></g></svg>